# xmcd
#
# Track frame offsets:
# 150
# 14999
# 26393
# 39921
# 51903
# 67545
# 77782
# 93128
# 106911
# 118098
# 135087
# 148608
# 163417
# 173925
#
# Disc length: 2504 seconds
#
#
# Revision: 0
# Processed by: cddbd v1.5.1PL2 Copyright (c) Steve Scherf et al.
# Submitted via: FreeRIP 2.944 
#
DISCID=b009c60e
DTITLE=Pedro Bento e Zé da Estrada - Voa, paloma, voa
DYEAR=1900
DGENRE=Sertanejo
TTITLE0=Quinze noites de saudade
TTITLE1=Quem me viu, quem me vê
TTITLE2=Boêmio, colarinho branco
TTITLE3=Choro Choro
TTITLE4=Quando arrependeres
TTITLE5=Barretos, peão e viola
TTITLE6=Flor da primavera
TTITLE7=Mulher do patrão
TTITLE8=Pobre desprezado
TTITLE9=Voa, paloma, voa
TTITLE10=Chuvisqueiro de mulher
TTITLE11=Misteriosa
TTITLE12=Fibra de aço
TTITLE13=Vida aparência
EXTD=
EXTT0=
EXTT1=
EXTT2=
EXTT3=
EXTT4=
EXTT5=
EXTT6=
EXTT7=
EXTT8=
EXTT9=
EXTT10=
EXTT11=
EXTT12=
EXTT13=
PLAYORDER=
